<svg xmlns="http://www.w3.org/2000/svg" xmlns:xlink="http://www.w3.org/1999/xlink" width="30" height="30" viewBox="0 0 30 30">
  <defs>
    <clipPath id="clip-path">
      <rect id="Rectangle_228" data-name="Rectangle 228" width="30" height="30" transform="translate(541 435)" fill="#fff"/>
    </clipPath>
  </defs>
  <g id="Mask_Group_31" data-name="Mask Group 31" transform="translate(-541 -435)" clip-path="url(#clip-path)">
    <g id="facebook_2_" data-name="facebook (2)" transform="translate(541 435)">
      <path id="Path_861" data-name="Path 861" d="M28.344,0H1.655A1.656,1.656,0,0,0,0,1.656V28.345A1.656,1.656,0,0,0,1.656,30H28.344A1.656,1.656,0,0,0,30,28.345h0V1.655A1.656,1.656,0,0,0,28.344,0Zm0,0" fill="#4267b2"/>
      <path id="Path_862" data-name="Path 862" d="M20.713,30V18.4h3.911l.586-4.541h-4.5V10.965c0-1.312.364-2.206,2.245-2.206h2.384V4.709a32.045,32.045,0,0,0-3.493-.179c-3.457,0-5.823,2.109-5.823,5.985v3.342h-3.9V18.4h3.9V30Zm0,0" fill="#fff"/>
    </g>
  </g>
</svg>
