<svg xmlns="http://www.w3.org/2000/svg" xmlns:xlink="http://www.w3.org/1999/xlink" width="25" height="25" viewBox="0 0 25 25">
  <defs>
    <clipPath id="clip-path">
      <rect id="Rectangle_18" data-name="Rectangle 18" width="25" height="25" transform="translate(1023 55)" fill="#ee7329"/>
    </clipPath>
  </defs>
  <g id="Mask_Group_1" data-name="Mask Group 1" transform="translate(-1023 -55)" clip-path="url(#clip-path)">
    <g id="shopping-cart_5_" data-name="shopping-cart (5)" transform="translate(1023 55.585)">
      <g id="Group_2" data-name="Group 2" transform="translate(16.027 17.992)">
        <g id="Group_1" data-name="Group 1">
          <path id="Path_643" data-name="Path 643" d="M19.587,19.32a2.919,2.919,0,1,0,2.919,2.919A2.953,2.953,0,0,0,19.587,19.32Z" transform="translate(-16.668 -19.32)" fill="#ee7329"/>
        </g>
      </g>
      <g id="Group_4" data-name="Group 4" transform="translate(0 0)">
        <g id="Group_3" data-name="Group 3">
          <path id="Path_644" data-name="Path 644" d="M24.083,4.678c-.056,0-.14-.028-.225-.028H6.175L5.894,2.77A2.513,2.513,0,0,0,3.4.608H1.123a1.123,1.123,0,1,0,0,2.245H3.4a.3.3,0,0,1,.281.253l1.74,11.845a3.077,3.077,0,0,0,3.031,2.61H20.125a3.119,3.119,0,0,0,3.031-2.47l1.824-9.122A1.109,1.109,0,0,0,24.083,4.678Z" transform="translate(0 -0.608)" fill="#f79961"/>
        </g>
      </g>
      <g id="Group_6" data-name="Group 6" transform="translate(6.089 17.992)">
        <g id="Group_5" data-name="Group 5">
          <path id="Path_645" data-name="Path 645" d="M12.032,22.1A2.9,2.9,0,0,0,9.141,19.32a2.936,2.936,0,0,0-2.807,3.031A2.877,2.877,0,0,0,9.2,25.13h.056A2.913,2.913,0,0,0,12.032,22.1Z" transform="translate(-6.333 -19.32)" fill="#ee7329"/>
        </g>
      </g>
    </g>
  </g>
</svg>
