<svg xmlns="http://www.w3.org/2000/svg" xmlns:xlink="http://www.w3.org/1999/xlink" width="20" height="20" viewBox="0 0 20 20">
  <defs>
    <linearGradient id="linear-gradient" x1="0.504" y1="0.388" x2="0.49" y2="0.506" gradientUnits="objectBoundingBox">
      <stop offset="0" stop-color="#c6c6c6"/>
      <stop offset="1" stop-color="#b5b5b5"/>
    </linearGradient>
    <clipPath id="clip-path">
      <rect id="Rectangle_205" data-name="Rectangle 205" width="20" height="20" transform="translate(-0.081)" stroke="#707070" stroke-width="1" fill="url(#linear-gradient)"/>
    </clipPath>
    <linearGradient id="linear-gradient-2" x1="0.504" y1="0.494" x2="0.504" y2="0.5" gradientUnits="objectBoundingBox">
      <stop offset="0" stop-color="#c6c6c6"/>
      <stop offset="1" stop-color="#8d8a8a"/>
    </linearGradient>
  </defs>
  <g id="Mask_Group_25" data-name="Mask Group 25" transform="translate(0.081)" clip-path="url(#clip-path)">
    <path id="clock_1_" data-name="clock (1)" d="M10.121,0A10.121,10.121,0,1,0,20.241,10.121,10.132,10.132,0,0,0,10.121,0Zm4.813,15.355a.843.843,0,0,1-1.192,0L9.524,11.139a.84.84,0,0,1-.247-.6V5.06a.843.843,0,0,1,1.687,0v5.133l3.97,3.97A.842.842,0,0,1,14.934,15.355Zm0,0" transform="translate(0 0)" fill="url(#linear-gradient-2)"/>
  </g>
</svg>
