<svg xmlns="http://www.w3.org/2000/svg" xmlns:xlink="http://www.w3.org/1999/xlink" width="25" height="25" viewBox="0 0 25 25">
  <defs>
    <clipPath id="clip-path">
      <rect id="Rectangle_24" data-name="Rectangle 24" width="25" height="25" transform="translate(74 883)" fill="#e5e5e5"/>
    </clipPath>
    <linearGradient id="linear-gradient" x1="0.5" y1="0.523" x2="0.5" y2="0.525" gradientUnits="objectBoundingBox">
      <stop offset="0" stop-color="#f79961"/>
      <stop offset="1" stop-color="#ee7329"/>
    </linearGradient>
  </defs>
  <g id="Mask_Group_10" data-name="Mask Group 10" transform="translate(-74 -883)" clip-path="url(#clip-path)">
    <g id="shirt_2_" data-name="shirt (2)" transform="translate(74 883)">
      <g id="Group_21" data-name="Group 21">
        <g id="Group_20" data-name="Group 20">
          <path id="Path_659" data-name="Path 659" d="M9.375.782a3.125,3.125,0,1,0,6.25,0H9.375Z" fill="#f79961"/>
        </g>
      </g>
      <g id="Group_23" data-name="Group 23">
        <g id="Group_22" data-name="Group 22">
          <path id="Path_660" data-name="Path 660" d="M24.606,4.01,19.137.885a.781.781,0,0,0-.387-.1H17.187a4.687,4.687,0,1,1-9.375,0H6.25a.786.786,0,0,0-.387.1L.394,4.01A.781.781,0,0,0,.03,4.9L1.592,10.37a.784.784,0,0,0,.941.544l2.155-.537V23.437a.782.782,0,0,0,.781.781H19.531a.782.782,0,0,0,.781-.781V10.377l2.155.537a.783.783,0,0,0,.941-.544L24.97,4.9A.781.781,0,0,0,24.606,4.01Z" fill="url(#linear-gradient)"/>
        </g>
      </g>
    </g>
  </g>
</svg>
