<svg xmlns="http://www.w3.org/2000/svg" xmlns:xlink="http://www.w3.org/1999/xlink" width="25" height="25" viewBox="0 0 25 25">
  <defs>
    <clipPath id="clip-path">
      <rect id="Rectangle_22" data-name="Rectangle 22" width="25" height="25" transform="translate(74 793)" fill="#e5e5e5"/>
    </clipPath>
  </defs>
  <g id="Mask_Group_8" data-name="Mask Group 8" transform="translate(-74 -793)" clip-path="url(#clip-path)">
    <g id="Imac" transform="translate(74 793)">
      <path id="Path_653" data-name="Path 653" d="M15.232,19.293a.391.391,0,0,0-.388-.348H10.156a.391.391,0,0,0-.388.348l-.391,3.516a.391.391,0,0,0,.388.434h5.469a.391.391,0,0,0,.388-.434Z" fill="#ee7329"/>
      <path id="Path_654" data-name="Path 654" d="M23.828,1.758H1.172A1.172,1.172,0,0,0,0,2.93v12.5a.391.391,0,0,0,.391.391H24.609A.391.391,0,0,0,25,15.43V2.93A1.172,1.172,0,0,0,23.828,1.758Z" fill="#f79961"/>
      <path id="Path_655" data-name="Path 655" d="M25,15.039H0v3.516a1.172,1.172,0,0,0,1.172,1.172H23.828A1.172,1.172,0,0,0,25,18.555Z" fill="#ee7329"/>
      <circle id="Ellipse_2" data-name="Ellipse 2" cx="1.172" cy="1.172" r="1.172" transform="translate(11.328 16.211)" fill="#f79961"/>
      <path id="Path_656" data-name="Path 656" d="M19.922,23.242H5.078a.391.391,0,0,1,0-.781H19.922a.391.391,0,0,1,0,.781Z" fill="#ee7329"/>
    </g>
  </g>
</svg>
