<svg xmlns="http://www.w3.org/2000/svg" xmlns:xlink="http://www.w3.org/1999/xlink" width="25" height="25" viewBox="0 0 25 25">
  <defs>
    <clipPath id="clip-path">
      <rect id="Rectangle_511" data-name="Rectangle 511" width="25" height="25" transform="translate(205 622)" fill="#fff" stroke="#707070" stroke-width="1"/>
    </clipPath>
  </defs>
  <g id="Mask_Group_66" data-name="Mask Group 66" transform="translate(-205 -622)" clip-path="url(#clip-path)">
    <g id="email_3_" data-name="email (3)" transform="translate(205 625.138)">
      <path id="Path_976" data-name="Path 976" d="M11.269,12.246a2.464,2.464,0,0,0,2.451,0h0L24.846,4.828A2.7,2.7,0,0,0,22.3,3.013H2.688A2.7,2.7,0,0,0,.142,4.828l11.127,7.418h0Z" transform="translate(0.006 -3.013)" fill="#fff"/>
      <path id="Path_977" data-name="Path 977" d="M14.538,13.326h0a3.92,3.92,0,0,1-4.076,0h0L0,6.351V18.9A2.7,2.7,0,0,0,2.694,21.6H22.306A2.7,2.7,0,0,0,25,18.9V6.351Z" transform="translate(0 -2.873)" fill="#fff"/>
    </g>
  </g>
</svg>
