<svg xmlns="http://www.w3.org/2000/svg" xmlns:xlink="http://www.w3.org/1999/xlink" width="25" height="25" viewBox="0 0 25 25">
  <defs>
    <clipPath id="clip-path">
      <rect id="Rectangle_26" data-name="Rectangle 26" width="25" height="25" transform="translate(74 973)" fill="#e5e5e5"/>
    </clipPath>
  </defs>
  <g id="Mask_Group_12" data-name="Mask Group 12" transform="translate(-74 -973)" clip-path="url(#clip-path)">
    <g id="teddy-bear" transform="translate(74 973)">
      <path id="Path_665" data-name="Path 665" d="M18.1,19.612c-1.428,1.428-1.66,3.519-.518,4.661,1.248,1.248,3.393.751,4.661-.518,1.427-1.428,1.659-3.519.518-4.661C21.537,17.87,19.4,18.31,18.1,19.612Z" fill="#ee7329"/>
      <path id="Path_666" data-name="Path 666" d="M7.42,24.273c1.142-1.142.91-3.233-.518-4.661-1.295-1.293-3.427-1.754-4.661-.518-1.142,1.142-.909,3.234.518,4.661C4.029,25.025,6.168,25.525,7.42,24.273Z" fill="#ee7329"/>
      <path id="Path_667" data-name="Path 667" d="M4.073,16.9a5.338,5.338,0,0,1,2.526.7,14.229,14.229,0,0,1,2.367-5.355,7.454,7.454,0,0,1-1.914-1.529,6.051,6.051,0,0,0-4.072,5.488,5.264,5.264,0,0,0,.072.831A4.251,4.251,0,0,1,4.073,16.9Z" fill="#ee7329"/>
      <path id="Path_668" data-name="Path 668" d="M17.949,10.723a7.453,7.453,0,0,1-1.914,1.529A14.23,14.23,0,0,1,18.4,17.607a5.346,5.346,0,0,1,2.525-.7,4.27,4.27,0,0,1,1.023.137,5.261,5.261,0,0,0,.072-.834,6.051,6.051,0,0,0-4.072-5.488Z" fill="#ee7329"/>
      <path id="Path_669" data-name="Path 669" d="M14.628,12.856a7.069,7.069,0,0,1-4.255,0,12.732,12.732,0,0,0-2.489,5.676,5.022,5.022,0,0,1,1.2,5.91A10.232,10.232,0,0,0,12.5,25a10.233,10.233,0,0,0,3.414-.559,5.025,5.025,0,0,1,1.2-5.91,12.73,12.73,0,0,0-2.489-5.675Zm-1.4,7.75H11.768V19.141h1.465Zm0-2.93H11.768V16.211h1.465Z" fill="#ee7329"/>
      <path id="Path_670" data-name="Path 670" d="M6.641,5.859a5.859,5.859,0,0,0,11.719,0A2.93,2.93,0,1,0,16.01,1.194a5.757,5.757,0,0,0-7.021,0A2.926,2.926,0,1,0,6.641,5.859Zm8.057-2.2h1.465V5.127H14.7Zm.732,3.662c0,1.232-1.287,2.2-2.93,2.2s-2.93-.965-2.93-2.2,1.287-2.2,2.93-2.2S15.43,6.092,15.43,7.324ZM8.838,3.662H10.3V5.127H8.838Z" fill="#f79961"/>
      <ellipse id="Ellipse_3" data-name="Ellipse 3" cx="1.465" cy="0.732" rx="1.465" ry="0.732" transform="translate(11.035 6.592)" fill="#f79961"/>
    </g>
  </g>
</svg>
