<svg xmlns="http://www.w3.org/2000/svg" xmlns:xlink="http://www.w3.org/1999/xlink" width="25" height="25" viewBox="0 0 25 25">
  <defs>
    <clipPath id="clip-path">
      <rect id="Rectangle_266" data-name="Rectangle 266" width="25" height="25" transform="translate(97 673)" fill="#fff" stroke="#707070" stroke-width="1"/>
    </clipPath>
  </defs>
  <g id="Mask_Group_41" data-name="Mask Group 41" transform="translate(-97 -673)" clip-path="url(#clip-path)">
    <g id="user_4_" data-name="user (4)" transform="translate(98.514 673)">
      <g id="Group_106" data-name="Group 106" transform="translate(4.395)">
        <g id="Group_105" data-name="Group 105">
          <path id="Path_889" data-name="Path 889" d="M14.154,0a6.592,6.592,0,1,0,6.592,6.592A6.6,6.6,0,0,0,14.154,0Z" transform="translate(-7.563)" fill="#f79961"/>
        </g>
      </g>
      <g id="Group_108" data-name="Group 108" transform="translate(0 14.648)">
        <g id="Group_107" data-name="Group 107">
          <path id="Path_890" data-name="Path 890" d="M21.125,21.592a9.4,9.4,0,0,0-6.737-2.842h-2.93a9.4,9.4,0,0,0-6.737,2.842,9.607,9.607,0,0,0-2.785,6.778.732.732,0,0,0,.732.732H23.178a.732.732,0,0,0,.732-.732A9.607,9.607,0,0,0,21.125,21.592Z" transform="translate(-1.938 -18.75)" fill="#ee7329"/>
        </g>
      </g>
    </g>
  </g>
</svg>
