<svg xmlns="http://www.w3.org/2000/svg" xmlns:xlink="http://www.w3.org/1999/xlink" width="25" height="25" viewBox="0 0 25 25"><defs><style>.a{fill:#fff;stroke:#707070;}.b{clip-path:url(#a);}.c{fill:#f79961;}.d{fill:#ee7329;}</style><clipPath id="a"><rect class="a" width="25" height="25" transform="translate(74 799)"/></clipPath></defs><g class="b" transform="translate(-74 -799)"><g transform="translate(74 799)"><path class="c" d="M16.725,4.733a.733.733,0,0,1-.806.654,2.775,2.775,0,0,0-3.063,2.48.732.732,0,0,1-.805.654A4.237,4.237,0,0,1,8.254,4.2,4.293,4.293,0,0,1,9.492,1.274a4.188,4.188,0,0,1,6.017,0A4.3,4.3,0,0,1,16.725,4.733Z"/><path class="d" d="M22.867,9.506a10.814,10.814,0,0,1,0,5.986A3.415,3.415,0,0,0,25,12.5,3.416,3.416,0,0,0,22.867,9.506ZM18.152,5.086A2.2,2.2,0,0,1,16,6.856c-.159,0-.262-.02-.372-.02a1.313,1.313,0,0,0-1.311,1.18A2.2,2.2,0,0,1,11.9,9.977,5.7,5.7,0,0,1,6.843,5.091a9.324,9.324,0,1,0,11.309,0ZM7.941,11.636A.732.732,0,0,1,6.9,10.6a2.684,2.684,0,0,1,3.8,0,.732.732,0,0,1-1.036,1.035A1.22,1.22,0,0,0,7.941,11.636Zm7.01,4.9a3.47,3.47,0,0,1-4.9,0A.732.732,0,1,1,11.085,15.5a2,2,0,0,0,2.831,0,.732.732,0,1,1,1.035,1.036Zm3.172-4.9a.731.731,0,0,1-1.035,0,1.22,1.22,0,0,0-1.726,0A.732.732,0,0,1,14.325,10.6a2.684,2.684,0,0,1,3.8,0A.732.732,0,0,1,18.123,11.636Zm.806,9.524a10.766,10.766,0,0,1-12.717.1,7.894,7.894,0,0,0-1.6,2.775.732.732,0,0,0,.468.924c.173.057-.772.037,14.839.037a.733.733,0,0,0,.7-.96,7.9,7.9,0,0,0-1.688-2.877ZM2.133,9.506A3.416,3.416,0,0,0,0,12.5a3.415,3.415,0,0,0,2.131,2.993A10.814,10.814,0,0,1,2.133,9.506Z"/></g></g></svg>