<svg xmlns="http://www.w3.org/2000/svg" xmlns:xlink="http://www.w3.org/1999/xlink" width="26" height="26" viewBox="0 0 26 26"><defs><style>.a{fill:#ee7329;}.b{clip-path:url(#a);}.c{fill:#f79961;}</style><clipPath id="a"><rect class="a" width="26" height="26" transform="translate(1023 55)"/></clipPath></defs><g class="b" transform="translate(-1023 -55)"><g transform="translate(1023 55)"><path class="a" d="M19.7,19.32a3.036,3.036,0,1,0,3.036,3.036A3.072,3.072,0,0,0,19.7,19.32Z"/><path class="c" d="M25.046,4.841c-.058,0-.146-.029-.234-.029H6.422L6.13,2.856A2.614,2.614,0,0,0,3.532.608H1.168a1.168,1.168,0,1,0,0,2.335H3.532a.31.31,0,0,1,.292.263l1.81,12.319A3.2,3.2,0,0,0,8.787,18.24H20.93a3.244,3.244,0,0,0,3.153-2.569l1.9-9.487A1.154,1.154,0,0,0,25.046,4.841Z"/><path class="a" d="M12.26,22.21a3.018,3.018,0,0,0-3.007-2.89,3.053,3.053,0,0,0-2.919,3.153,2.992,2.992,0,0,0,2.977,2.89H9.37A3.029,3.029,0,0,0,12.26,22.21Z"/></g></g></svg>
