<svg xmlns="http://www.w3.org/2000/svg" xmlns:xlink="http://www.w3.org/1999/xlink" width="25" height="25" viewBox="0 0 25 25"><defs><style>.a{fill:#fff;stroke:#707070;}.b{clip-path:url(#a);}.c{fill:#f79961;}.d{fill:#ee7329;}</style><clipPath id="a"><rect class="a" width="25" height="25" transform="translate(74 895)"/></clipPath></defs><g class="b" transform="translate(-74 -895)"><g transform="translate(74 895)"><path class="c" d="M22.656,3.125v.781a.781.781,0,1,1-1.562,0V3.125H19.271a.521.521,0,0,0-.521.521V7.812a.521.521,0,0,0,.521.521h5.208A.521.521,0,0,0,25,7.812V3.646a.521.521,0,0,0-.521-.521Z"/><path class="d" d="M24.219,9.9H17.188V3.906a.781.781,0,0,0-1.563,0v9.115H14.554L12.1,6.078A2.868,2.868,0,0,0,9.4,4.167H5.99a.782.782,0,0,0-.781.781v5.469H2.865A2.867,2.867,0,0,0,0,13.281v4.688a1.825,1.825,0,0,0,1.823,1.823h.314a2.6,2.6,0,0,0,5.1,0H9.427a2.6,2.6,0,0,0,5.1,0h1.876a.782.782,0,0,0,.781-.781V11.458h7.031a.781.781,0,0,0,0-1.562ZM6.771,5.729H9.4A1.3,1.3,0,0,1,10.63,6.6L12.9,13.021H8.073a1.3,1.3,0,0,1-1.3-1.3V5.729ZM4.688,20.313a1.042,1.042,0,1,1,1.042-1.042A1.043,1.043,0,0,1,4.688,20.313Zm7.292,0a1.042,1.042,0,1,1,1.042-1.042A1.043,1.043,0,0,1,11.979,20.313Z"/></g></g></svg>