<svg xmlns="http://www.w3.org/2000/svg" xmlns:xlink="http://www.w3.org/1999/xlink" width="25" height="25" viewBox="0 0 25 25"><defs><style>.a{fill:#fff;stroke:#707070;}.b{clip-path:url(#a);}.c{fill:#ee7329;}.d{fill:#f79961;}</style><clipPath id="a"><rect class="a" width="25" height="25" transform="translate(74 943)"/></clipPath></defs><g class="b" transform="translate(-74 -943)"><g transform="translate(74 943)"><path class="c" d="M16.925,6.613H8.075a.732.732,0,0,1-.732-.732V3.238a2.505,2.505,0,0,1,2.5-2.5h5.31a2.505,2.505,0,0,1,2.5,2.5V5.881a.732.732,0,0,1-.732.732ZM8.807,5.637h7.385v-2.4A1.039,1.039,0,0,0,15.155,2.2H9.845A1.039,1.039,0,0,0,8.807,3.238Z"/><path class="c" d="M15.155.735H12.5V2.2h2.655a1.039,1.039,0,0,1,1.038,1.038v2.4H12.5v.977h4.425a.732.732,0,0,0,.732-.732V3.238a2.505,2.505,0,0,0-2.5-2.5Z"/><path class="c" d="M21.277,24.265,12.5,22.949,3.723,24.265A3.727,3.727,0,0,1,0,20.541V8.871A3.727,3.727,0,0,1,3.723,5.148l8.777.613,8.777-.613A3.727,3.727,0,0,1,25,8.871v11.67A3.727,3.727,0,0,1,21.277,24.265Z"/><path class="c" d="M21.277,5.148,12.5,5.637v18.14l8.777.488A3.727,3.727,0,0,0,25,20.541V8.871a3.727,3.727,0,0,0-3.723-3.723Z"/><path class="d" d="M21.277,24.265H3.723V5.148H21.277Z"/><path class="d" d="M12.5,5.148h8.777V24.265H12.5Z"/><path class="c" d="M13.971,19.852H11.029a.732.732,0,0,1-.732-.732V16.91H8.087a.732.732,0,0,1-.732-.732V13.235a.732.732,0,0,1,.732-.732H10.3V10.294a.732.732,0,0,1,.732-.732h2.942a.732.732,0,0,1,.732.732V12.5h2.209a.732.732,0,0,1,.732.732v2.942a.732.732,0,0,1-.732.732H14.7v2.209A.732.732,0,0,1,13.971,19.852Z"/><path class="c" d="M16.913,12.5H14.7V10.294a.732.732,0,0,0-.732-.732H12.5V19.852h1.471a.732.732,0,0,0,.732-.732V16.91h2.209a.732.732,0,0,0,.732-.732V13.235A.732.732,0,0,0,16.913,12.5Z"/></g></g></svg>