<svg xmlns="http://www.w3.org/2000/svg" xmlns:xlink="http://www.w3.org/1999/xlink" width="25" height="25" viewBox="0 0 25 25"><defs><style>.a{fill:#fff;stroke:#707070;}.b{clip-path:url(#a);}.c{fill:#ee7329;}.d{fill:#f79961;}</style><clipPath id="a"><rect class="a" width="25" height="25" transform="translate(74 1135)"/></clipPath></defs><g class="b" transform="translate(-74 -1135)"><g transform="translate(74 1135)"><path class="c" d="M18.269,0H6.731A1.127,1.127,0,0,0,5.6,1.127V23.873A1.127,1.127,0,0,0,6.731,25H18.27A1.127,1.127,0,0,0,19.4,23.873V1.127A1.127,1.127,0,0,0,18.269,0Z"/><rect class="d" width="13.793" height="18.103" transform="translate(5.603 2.586)"/><path class="d" d="M14.655,1.724h-4.31a.431.431,0,0,1,0-.862h4.31a.431.431,0,0,1,0,.862Z"/><path class="d" d="M17.672,1.724h-.431a.431.431,0,1,1,0-.862h.431a.431.431,0,0,1,0,.862Z"/><path class="d" d="M13.035,23.707h-1.07a.758.758,0,0,1-.758-.758V22.74a.758.758,0,0,1,.758-.758h1.07a.758.758,0,0,1,.758.758v.208A.758.758,0,0,1,13.035,23.707Z"/></g></g></svg>