<svg xmlns="http://www.w3.org/2000/svg" xmlns:xlink="http://www.w3.org/1999/xlink" width="25" height="25" viewBox="0 0 25 25"><defs><style>.a{fill:#e5e5e5;}.b{clip-path:url(#a);}.c{fill:#f79961;}.d{fill:#ee7329;}</style><clipPath id="a"><rect class="a" width="25" height="25" transform="translate(74 838)"/></clipPath></defs><g class="b" transform="translate(-74 -838)"><g transform="translate(74 838)"><path class="c" d="M24.971,12.294,22.4,3.505a.732.732,0,0,0-.7-.527H9.534V1.465A.732.732,0,0,0,9.534,0H5.139a.732.732,0,0,0,0,1.465V2.979H3.3a.732.732,0,0,0-.7.527L.029,12.294a.732.732,0,0,0,.7.938H24.268a.732.732,0,0,0,.7-.938ZM8.069,2.979H6.6V1.465H8.069Z"/><path class="d" d="M24.268,21.045H23V14.7H2v6.348H.732A.732.732,0,0,0,0,21.777v2.49A.732.732,0,0,0,.732,25H24.268A.732.732,0,0,0,25,24.268v-2.49A.732.732,0,0,0,24.268,21.045Zm-13.965,0H4.443v-4.15a.732.732,0,0,1,.732-.732H9.57a.732.732,0,0,1,.732.732Zm10.254,0H11.768v-4.15a.732.732,0,0,1,.732-.732h7.324a.732.732,0,0,1,.732.732Z"/><rect class="d" width="2.197" height="2.93" transform="translate(13.232 17.139)"/><rect class="d" width="2.197" height="2.93" transform="translate(16.895 17.139)"/></g></g></svg>