<svg xmlns="http://www.w3.org/2000/svg" xmlns:xlink="http://www.w3.org/1999/xlink" width="25" height="25" viewBox="0 0 25 25"><defs><style>.a{fill:#fff;stroke:#707070;}.b{clip-path:url(#a);}.c{fill:#f79961;}.d{fill:#ee7329;}</style><clipPath id="a"><rect class="a" width="25" height="25" transform="translate(74 1231)"/></clipPath></defs><g class="b" transform="translate(-74 -1231)"><g transform="translate(74 1231)"><path class="c" d="M18.06,13.691l-1.667,1.667h0L4.878,3.843l.885-.885L2.094,0,0,2.094,2.957,5.764l.885-.885L15.357,16.393,13.69,18.06l2.377,2.377,4.37-4.37Z"/><path class="c" d="M21.473,17.1l-4.37,4.37L19.725,24.1a3.09,3.09,0,0,0,4.37-4.37Z"/><path class="d" d="M12.653,15.761,9.24,12.348l-2.5,2.5a5.194,5.194,0,1,0,3.413,3.413Zm-6.27,5.234a1.681,1.681,0,1,1,0-2.377A1.681,1.681,0,0,1,6.383,20.994Z"/><path class="d" d="M24.66,3.133,24.251,2.09,21.631,4.711l-1.058-.284-.284-1.058L22.91.749,21.867.34a4.935,4.935,0,0,0-6.553,5.932L12.347,9.24l3.413,3.413,2.968-2.968A4.935,4.935,0,0,0,24.66,3.133Z"/></g></g></svg>