<svg xmlns="http://www.w3.org/2000/svg" xmlns:xlink="http://www.w3.org/1999/xlink" width="25" height="25" viewBox="0 0 25 25"><defs><style>.a{fill:#e5e5e5;}.b{clip-path:url(#a);}.c{fill:#f79961;}.d{fill:url(#b);}</style><clipPath id="a"><rect class="a" width="25" height="25" transform="translate(74 883)"/></clipPath><linearGradient id="b" x1="0.5" y1="0.523" x2="0.5" y2="0.525" gradientUnits="objectBoundingBox"><stop offset="0" stop-color="#f79961"/><stop offset="1" stop-color="#ee7329"/></linearGradient></defs><g class="b" transform="translate(-74 -883)"><g transform="translate(74 883)"><path class="c" d="M9.375.782a3.125,3.125,0,1,0,6.25,0H9.375Z"/><path class="d" d="M24.606,4.01,19.137.885a.781.781,0,0,0-.387-.1H17.187a4.687,4.687,0,1,1-9.375,0H6.25a.786.786,0,0,0-.387.1L.394,4.01A.781.781,0,0,0,.03,4.9L1.592,10.37a.784.784,0,0,0,.941.544l2.155-.537V23.437a.782.782,0,0,0,.781.781H19.531a.782.782,0,0,0,.781-.781V10.377l2.155.537a.783.783,0,0,0,.941-.544L24.97,4.9A.781.781,0,0,0,24.606,4.01Z"/></g></g></svg>