<svg xmlns="http://www.w3.org/2000/svg" xmlns:xlink="http://www.w3.org/1999/xlink" width="25" height="25" viewBox="0 0 25 25"><defs><style>.a{fill:#fff;stroke:#707070;}.b{clip-path:url(#a);}.c{fill:#ee7329;}.d{fill:#f79961;}</style><clipPath id="a"><rect class="a" width="25" height="25" transform="translate(74 1279)"/></clipPath></defs><g class="b" transform="translate(-74 -1279)"><g transform="translate(74 1279)"><path class="c" d="M17.564,22.13q-.349.349-.725.661L19.048,25l1.035-1.035L17.9,21.78Q17.735,21.958,17.564,22.13Z"/><path class="c" d="M2.342,21.784.161,23.965,1.2,25,3.4,22.794q-.377-.313-.729-.664-.17-.17-.331-.347Z"/><path class="c" d="M17.018,14.685a6.908,6.908,0,1,1-2.548-5.35L16.006,7.8a9.074,9.074,0,1,0,1.032,1.038L15.5,10.374A6.866,6.866,0,0,1,17.018,14.685Z"/><path class="c" d="M9.637,14.167l1.134-1.134a1.776,1.776,0,1,0,1.019,1.051L10.672,15.2Z"/><path class="d" d="M4.683,14.685a5.435,5.435,0,1,0,9.775-3.269l-1.577,1.577a3.248,3.248,0,1,1-1.027-1.043l1.574-1.574a5.432,5.432,0,0,0-8.745,4.309Z"/><path class="d" d="M22.024,2.815,21.417,0,17.685,3.732V6.119L16.006,7.8a9.134,9.134,0,0,1,1.032,1.038L18.72,7.154h2.387l3.732-3.732Z"/></g></g></svg>