<svg xmlns="http://www.w3.org/2000/svg" xmlns:xlink="http://www.w3.org/1999/xlink" width="26" height="26" viewBox="0 0 26 26"><defs><style>.a{fill:#ee7329;}.b{clip-path:url(#a);}.c{fill:#f79961;}</style><clipPath id="a"><rect class="a" width="26" height="26" transform="translate(1128 55)"/></clipPath></defs><g class="b" transform="translate(-1128 -55)"><g transform="translate(1128 55)"><path class="c" d="M13,0a6.855,6.855,0,1,0,6.855,6.855A6.863,6.863,0,0,0,13,0Z"/><path class="a" d="M21.53,18.19a9.773,9.773,0,0,0-7.006-2.955H11.477A9.773,9.773,0,0,0,4.47,18.19a9.991,9.991,0,0,0-2.9,7.049A.762.762,0,0,0,2.336,26H23.664a.762.762,0,0,0,.762-.762A9.991,9.991,0,0,0,21.53,18.19Z"/></g></g></svg>