<svg xmlns="http://www.w3.org/2000/svg" xmlns:xlink="http://www.w3.org/1999/xlink" width="25" height="25" viewBox="0 0 25 25"><defs><style>.a{fill:#fff;stroke:#707070;}.b{clip-path:url(#a);}.c{fill:url(#b);}</style><clipPath id="a"><rect class="a" width="25" height="25" transform="translate(74 1327)"/></clipPath><linearGradient id="b" x1="0.5" y1="0.63" x2="0.5" y2="0.638" gradientUnits="objectBoundingBox"><stop offset="0" stop-color="#f79961"/><stop offset="1" stop-color="#ee7329"/></linearGradient></defs><g class="b" transform="translate(-74 -1327)"><g transform="translate(74 1327)"><path class="c" d="M25,13.649a3.277,3.277,0,0,0-.312-1.391c-.021-.109-.044-.218-.074-.329L22.443,6.547,22.428,6.5c-.76-2.262-1.841-4.356-4.582-4.356H7.365c-2.809,0-3.8,2.146-4.578,4.344L.515,11.881A3.321,3.321,0,0,0,0,13.649v1.675a3.256,3.256,0,0,0,.089.756A1.316,1.316,0,0,0,0,16.554v4.981a1.323,1.323,0,0,0,1.322,1.323H4.067a1.322,1.322,0,0,0,1.322-1.323V19.044H19.768v2.491a1.323,1.323,0,0,0,1.323,1.323h2.587A1.323,1.323,0,0,0,25,21.535V16.553a1.324,1.324,0,0,0-.089-.473A3.271,3.271,0,0,0,25,15.324V13.649h0ZM4.4,7.027c.865-2.44,1.56-3.184,2.966-3.184H17.845c1.4,0,2.173.831,2.963,3.174l1.585,3.211a4.85,4.85,0,0,0-1.685-.3H4.292a4.873,4.873,0,0,0-1.528.243ZM5.76,15.96h-2.9a.944.944,0,0,1,0-1.889h2.9a.944.944,0,0,1,0,1.889Zm10.229-.189H9.253a.6.6,0,0,1,0-1.2h6.735a.6.6,0,1,1,0,1.2Zm6.074.189h-2.9a.944.944,0,0,1,0-1.889h2.9a.944.944,0,1,1,0,1.889Z"/></g></g></svg>