<svg xmlns="http://www.w3.org/2000/svg" xmlns:xlink="http://www.w3.org/1999/xlink" width="30" height="30" viewBox="0 0 30 30">
  <defs>
    <clipPath id="clip-path">
      <rect id="Rectangle_227" data-name="Rectangle 227" width="30" height="30" transform="translate(-0.103)" fill="#e6e1e1"/>
    </clipPath>
  </defs>
  <g id="Mask_Group_32" data-name="Mask Group 32" transform="translate(0.103)" clip-path="url(#clip-path)">
    <g id="google" transform="translate(0 0)">
      <path id="Path_863" data-name="Path 863" d="M7.031,15a7.92,7.92,0,0,1,1.121-4.071V5.872H3.1a15.008,15.008,0,0,0,0,18.256H8.152V19.071A7.92,7.92,0,0,1,7.031,15Z" fill="#fbbd00"/>
      <path id="Path_864" data-name="Path 864" d="M15,22.969l-3.516,3.516L15,30a14.886,14.886,0,0,0,9.128-3.1V21.853H19.076A7.968,7.968,0,0,1,15,22.969Z" fill="#0f9d58"/>
      <path id="Path_865" data-name="Path 865" d="M8.152,19.071,3.1,24.128a15.239,15.239,0,0,0,1.3,1.479A14.9,14.9,0,0,0,15,30V22.969a7.972,7.972,0,0,1-6.848-3.9Z" fill="#31aa52"/>
      <path id="Path_866" data-name="Path 866" d="M30,15a15.131,15.131,0,0,0-.246-2.717l-.132-.721H15v7.031h7.116a7.933,7.933,0,0,1-3.04,3.26L24.128,26.9a15.239,15.239,0,0,0,1.479-1.3A14.9,14.9,0,0,0,30,15Z" fill="#3c79e6"/>
      <path id="Path_867" data-name="Path 867" d="M20.635,9.365l.621.621,4.972-4.972-.621-.621A14.9,14.9,0,0,0,15,0L11.484,3.516,15,7.031A7.917,7.917,0,0,1,20.635,9.365Z" fill="#cf2d48"/>
      <path id="Path_868" data-name="Path 868" d="M15,7.031V0A14.9,14.9,0,0,0,4.393,4.393,15.226,15.226,0,0,0,3.1,5.872l5.057,5.057A7.972,7.972,0,0,1,15,7.031Z" fill="#eb4132"/>
    </g>
  </g>
</svg>
