<svg xmlns="http://www.w3.org/2000/svg" xmlns:xlink="http://www.w3.org/1999/xlink" width="25" height="25" viewBox="0 0 25 25"><defs><style>.a{fill:#fff;stroke:#707070;}.b{clip-path:url(#a);}.c{fill:#f79961;}.d{fill:#ee7329;}</style><clipPath id="a"><rect class="a" width="25" height="25" transform="translate(74 780)"/></clipPath></defs><g class="b" transform="translate(-74 -780)"><g transform="translate(74 780)"><path class="c" d="M12.5,0A8.8,8.8,0,0,0,3.711,8.789,8.667,8.667,0,0,0,5.029,13.4L11.9,24.654a.694.694,0,0,0,.5.337.729.729,0,0,0,.747-.352l6.895-11.353a8.668,8.668,0,0,0,1.245-4.5A8.8,8.8,0,0,0,12.5,0Zm0,13.184a4.395,4.395,0,1,1,4.395-4.395A4.389,4.389,0,0,1,12.5,13.184Z"/><path class="d" d="M12.5,0V4.395a4.395,4.395,0,0,1,0,8.789V25a.725.725,0,0,0,.649-.36l6.895-11.353a8.668,8.668,0,0,0,1.245-4.5A8.8,8.8,0,0,0,12.5,0Z"/></g></g></svg>