<svg xmlns="http://www.w3.org/2000/svg" xmlns:xlink="http://www.w3.org/1999/xlink" width="25" height="25" viewBox="0 0 25 25">
  <defs>
    <clipPath id="clip-path">
      <rect id="Rectangle_251" data-name="Rectangle 251" width="25" height="25" transform="translate(97 505)" fill="#fff" stroke="#707070" stroke-width="1"/>
    </clipPath>
  </defs>
  <g id="Mask_Group_39" data-name="Mask Group 39" transform="translate(-97 -505)" clip-path="url(#clip-path)">
    <g id="list_1_" data-name="list (1)" transform="translate(97 507.556)">
      <path id="Path_881" data-name="Path 881" d="M0,0H5.532V5.532H0ZM0,0" fill="#f79961"/>
      <path id="Path_882" data-name="Path 882" d="M9.331,0h17.71V5.532H9.331Zm0,0" transform="translate(-2.041)" fill="#ee7329"/>
      <path id="Path_883" data-name="Path 883" d="M0,9.188H5.532V14.72H0Zm0,0" transform="translate(0 -2.01)" fill="#f79961"/>
      <path id="Path_884" data-name="Path 884" d="M9.331,9.188h17.71V14.72H9.331Zm0,0" transform="translate(-2.041 -2.01)" fill="#ee7329"/>
      <path id="Path_885" data-name="Path 885" d="M0,18.376H5.532v5.532H0Zm0,0" transform="translate(0 -4.02)" fill="#f79961"/>
      <path id="Path_886" data-name="Path 886" d="M9.331,18.376h17.71v5.532H9.331Zm0,0" transform="translate(-2.041 -4.02)" fill="#ee7329"/>
    </g>
  </g>
</svg>
