<svg xmlns="http://www.w3.org/2000/svg" xmlns:xlink="http://www.w3.org/1999/xlink" width="25" height="25" viewBox="0 0 25 25"><defs><style>.a{fill:#fff;stroke:#707070;}.b{clip-path:url(#a);}.c{fill:url(#b);}.d{fill:#f2f2f2;}</style><clipPath id="a"><rect class="a" width="25" height="25" transform="translate(74 895)"/></clipPath><linearGradient id="b" x1="0.512" y1="0.452" x2="0.506" y2="0.446" gradientUnits="objectBoundingBox"><stop offset="0" stop-color="#ee7329"/><stop offset="1" stop-color="#f79961"/></linearGradient></defs><g class="b" transform="translate(-74 -895)"><g transform="translate(74 895)"><path class="c" d="M21.835,12.409a.733.733,0,0,0,.057-.282V3.841a.732.732,0,0,0-.732-.732H12.873a.742.742,0,0,0-.519.214L.215,15.461a.732.732,0,0,0,0,1.036L8.5,24.785a.732.732,0,0,0,1.036,0L21.677,12.647A.733.733,0,0,0,21.835,12.409Z"/><path class="d" d="M17.956,8.08l6.829-6.829A.733.733,0,0,0,23.749.215L16.92,7.044A2.2,2.2,0,1,0,17.956,8.08Z"/></g></g></svg>